<svg width="765" height="313" viewBox="0 0 765 313" fill="none" xmlns="http://www.w3.org/2000/svg">
<path d="M34.5703 221V214.082C39.2422 214.082 42.4766 213.753 44.2734 213.094C45.112 212.794 45.7409 212.285 46.1602 211.566C46.7591 210.428 47.0885 208.272 47.1484 205.098L47.5078 197.102C47.5677 195.424 47.5977 192.699 47.5977 188.926V177.156C47.5977 171.826 47.418 165.357 47.0586 157.75C46.8789 153.917 46.6094 151.76 46.25 151.281C45.9505 150.742 45.4414 150.353 44.7227 150.113C43.5846 149.694 40.2005 149.395 34.5703 149.215V142.297C45.4714 140.44 52.6289 139.062 56.043 138.164C59.457 137.266 63.3203 135.828 67.6328 133.852L70.0586 134.93V149.395L86.4102 136.277C88.3268 135.499 89.944 134.99 91.2617 134.75C92.6393 134.451 94.4661 134.301 96.7422 134.301C103.93 134.301 109.35 135.469 113.004 137.805C116.717 140.081 119.772 143.944 122.168 149.395L138.52 136.277C140.436 135.499 142.053 134.99 143.371 134.75C144.749 134.451 146.576 134.301 148.852 134.301C154.781 134.301 159.363 135.049 162.598 136.547C165.892 137.984 168.617 139.961 170.773 142.477C172.93 144.992 174.457 147.688 175.355 150.562C176.254 153.438 176.703 157.87 176.703 163.859C176.703 170.448 176.643 174.82 176.523 176.977C176.464 177.695 176.434 178.564 176.434 179.582V188.926C176.434 198.509 176.583 204.648 176.883 207.344C177.242 209.979 177.811 211.656 178.59 212.375C179.428 213.034 181.225 213.453 183.98 213.633C184.939 213.693 186.616 213.842 189.012 214.082V221C180.806 220.521 174.038 220.281 168.707 220.281C162.658 220.281 157.507 220.521 153.254 221L151.996 219.293L153.074 203.031C153.314 196.443 153.434 190.783 153.434 186.051V179.223C153.434 168.561 152.954 161.853 151.996 159.098C151.038 156.283 149.421 154.096 147.145 152.539C144.928 150.922 142.113 150.113 138.699 150.113C134.866 150.113 131.602 151.102 128.906 153.078C126.211 154.995 124.534 156.762 123.875 158.379C123.276 159.936 123.007 163.111 123.066 167.902V189.645L123.246 198.629L123.426 205.906C123.486 208.122 123.695 209.65 124.055 210.488C124.414 211.327 124.923 211.956 125.582 212.375C126.121 212.674 127.259 212.944 128.996 213.184C132.41 213.603 134.866 213.902 136.363 214.082V221C131.033 220.76 123.366 220.641 113.363 220.641C102.223 220.641 93.987 220.76 88.6562 221V214.082C89.7943 213.902 91.2617 213.723 93.0586 213.543C95.694 213.363 97.3411 213.064 98 212.645C98.7188 212.165 99.2878 211.267 99.707 209.949C100.126 208.572 100.336 205.427 100.336 200.516L100.516 184.613V171.855C100.516 165.746 100.126 161.434 99.3477 158.918C98.6289 156.342 97.1016 154.216 94.7656 152.539C92.4896 150.802 89.5247 149.934 85.8711 149.934C81.8581 149.934 78.474 150.952 75.7188 152.988C72.9635 155.025 71.2266 157.061 70.5078 159.098C70.1484 160.236 69.9987 164.938 70.0586 173.203V188.926C70.0586 197.012 70.2383 203.211 70.5977 207.523C70.7174 209.799 71.0169 211.237 71.4961 211.836C71.9753 212.435 72.7839 212.884 73.9219 213.184C74.7604 213.423 77.5456 213.723 82.2773 214.082V221C75.8086 220.76 68.0221 220.641 58.918 220.641C48.6758 220.641 40.5599 220.76 34.5703 221Z" fill="white"/>
<path d="M209 236C209 239.314 206.314 242 203 242C199.686 242 197 239.314 197 236C197 232.686 199.686 230 203 230C206.314 230 209 232.686 209 236Z" fill="#00C8FF"/>
<mask id="mask0_0_1" style="mask-type:alpha" maskUnits="userSpaceOnUse" x="0" y="74" width="220" height="220">
<circle cx="110" cy="184" r="106" stroke="white" stroke-width="8"/>
</mask>
<g mask="url(#mask0_0_1)">
<path d="M211 232L198.5 224.783L191 237.774L204 245.279V297.5H-9V70.5H227V232H211Z" fill="white" stroke="black"/>
</g>
<path d="M263.66 225V216.729C269.246 216.729 273.113 216.335 275.262 215.547C276.264 215.189 277.016 214.58 277.518 213.721C278.234 212.36 278.628 209.782 278.699 205.986L279.129 196.426C279.201 194.421 279.236 191.162 279.236 186.65V172.578C279.236 166.204 279.021 158.47 278.592 149.375C278.377 144.792 278.055 142.214 277.625 141.641C277.267 140.996 276.658 140.531 275.799 140.244C274.438 139.743 270.392 139.385 263.66 139.17V130.898C276.694 128.678 285.252 127.031 289.334 125.957C293.416 124.883 298.035 123.164 303.191 120.801L306.092 122.09V139.385L325.643 123.701C327.934 122.77 329.868 122.161 331.443 121.875C333.09 121.517 335.275 121.338 337.996 121.338C346.59 121.338 353.071 122.734 357.439 125.527C361.88 128.249 365.532 132.868 368.396 139.385L387.947 123.701C390.239 122.77 392.173 122.161 393.748 121.875C395.395 121.517 397.579 121.338 400.301 121.338C407.391 121.338 412.869 122.233 416.736 124.023C420.675 125.742 423.934 128.105 426.512 131.113C429.09 134.121 430.916 137.344 431.99 140.781C433.064 144.219 433.602 149.518 433.602 156.68C433.602 164.557 433.53 169.785 433.387 172.363C433.315 173.223 433.279 174.261 433.279 175.479V186.65C433.279 198.109 433.458 205.449 433.816 208.672C434.246 211.823 434.926 213.828 435.857 214.688C436.86 215.475 439.008 215.977 442.303 216.191C443.449 216.263 445.454 216.442 448.318 216.729V225C438.507 224.427 430.415 224.141 424.041 224.141C416.808 224.141 410.649 224.427 405.564 225L404.061 222.959L405.35 203.516C405.636 195.638 405.779 188.87 405.779 183.213V175.049C405.779 162.301 405.206 154.281 404.061 150.986C402.915 147.62 400.981 145.007 398.26 143.145C395.61 141.211 392.244 140.244 388.162 140.244C383.579 140.244 379.676 141.426 376.453 143.789C373.23 146.081 371.225 148.193 370.438 150.127C369.721 151.989 369.399 155.785 369.471 161.514V187.51L369.686 198.252L369.9 206.953C369.972 209.603 370.223 211.429 370.652 212.432C371.082 213.434 371.691 214.186 372.479 214.688C373.123 215.046 374.484 215.368 376.561 215.654C380.643 216.156 383.579 216.514 385.369 216.729V225C378.995 224.714 369.829 224.57 357.869 224.57C344.549 224.57 334.702 224.714 328.328 225V216.729C329.689 216.514 331.443 216.299 333.592 216.084C336.743 215.869 338.712 215.511 339.5 215.01C340.359 214.437 341.04 213.363 341.541 211.787C342.042 210.14 342.293 206.38 342.293 200.508L342.508 181.494V166.24C342.508 158.936 342.042 153.779 341.111 150.771C340.252 147.692 338.426 145.15 335.633 143.145C332.911 141.068 329.367 140.029 324.998 140.029C320.2 140.029 316.154 141.247 312.859 143.682C309.565 146.117 307.488 148.551 306.629 150.986C306.199 152.347 306.02 157.969 306.092 167.852V186.65C306.092 196.318 306.307 203.73 306.736 208.887C306.88 211.608 307.238 213.327 307.811 214.043C308.383 214.759 309.35 215.296 310.711 215.654C311.714 215.941 315.044 216.299 320.701 216.729V225C312.967 224.714 303.657 224.57 292.771 224.57C280.525 224.57 270.822 224.714 263.66 225ZM557.674 216.943V225C549.438 224.642 542.133 224.463 535.76 224.463C529.744 224.463 523.908 224.642 518.25 225L517.283 223.818L518.25 209.746C515.672 211.393 508.081 217.051 495.477 226.719C492.254 227.435 489.174 227.793 486.238 227.793C478.432 227.793 472.309 225.501 467.869 220.918C463.501 216.335 461.316 209.746 461.316 201.152C461.316 195.352 462.283 190.589 464.217 186.865C466.222 183.141 468.335 180.42 470.555 178.701C472.846 176.911 476.355 175.192 481.082 173.545C492.397 169.535 504.786 166.383 518.25 164.092C518.393 155.57 516.639 149.089 512.986 144.648C509.262 140.208 503.605 137.988 496.014 137.988C492.934 137.988 489.998 138.382 487.205 139.17C485.988 139.528 484.555 140.244 482.908 141.318L478.396 152.168L471.092 150.557L471.736 136.699C477.036 133.118 482.085 130.003 486.883 127.354C491.681 124.704 495.047 123.092 496.98 122.52C499.63 121.732 503.354 121.338 508.152 121.338C515.958 121.338 522.368 122.484 527.381 124.775C532.465 126.995 536.189 129.645 538.553 132.725C540.988 135.804 542.635 139.098 543.494 142.607C544.425 146.117 544.891 150.557 544.891 155.928C544.891 158.219 544.712 164.199 544.354 173.867C544.139 180.312 544.031 185.576 544.031 189.658C544.031 202.406 544.389 210.14 545.105 212.861C545.392 214.15 545.965 215.01 546.824 215.439C547.97 216.012 551.587 216.514 557.674 216.943ZM518.25 173.115C512.163 174.404 506.577 175.98 501.492 177.842C496.479 179.632 493.006 181.888 491.072 184.609C489.139 187.259 488.172 190.625 488.172 194.707C488.172 199.29 489.318 202.835 491.609 205.342C493.973 207.848 497.052 209.102 500.848 209.102C504.07 209.102 507.293 208.171 510.516 206.309C513.81 204.447 516.388 202.083 518.25 199.219V173.115ZM629.539 216.406V225C620.587 224.427 611.242 224.141 601.502 224.141C591.762 224.141 580.805 224.427 568.631 225V216.514C575.434 216.299 579.552 216.012 580.984 215.654C582.059 215.368 582.846 214.974 583.348 214.473C583.921 213.9 584.314 213.04 584.529 211.895C585.031 209.746 585.389 202.979 585.604 191.592C585.818 180.205 585.926 170.107 585.926 161.299V125.85C585.926 114.606 585.675 104.329 585.174 95.0195C584.887 90.0065 584.529 87.0345 584.1 86.1035C583.813 85.6022 583.419 85.2083 582.918 84.9219C582.059 84.349 580.698 83.9193 578.836 83.6328C577.762 83.4896 574.539 83.3105 569.168 83.0957V75.1465C578.048 74.2155 585.138 73.2129 590.438 72.1387C595.737 70.9928 602.863 69.0234 611.814 66.2305L614.07 67.5195L613.211 89.2188C612.853 101.393 612.638 116.325 612.566 134.014V161.514C612.566 171.898 612.638 179.668 612.781 184.824C613.068 197.643 613.283 205.413 613.426 208.135C613.569 210.785 613.82 212.467 614.178 213.184C614.393 213.685 614.751 214.115 615.252 214.473C615.896 214.974 617.007 215.368 618.582 215.654C619.227 215.798 622.879 216.048 629.539 216.406ZM641.678 138.848V130.684C647.837 130.326 654.031 129.502 660.262 128.213C666.492 126.924 674.477 124.632 684.217 121.338L685.721 122.52C684.718 136.699 684.217 149.805 684.217 161.836V173.867C684.217 184.108 684.467 190.947 684.969 194.385C685.685 198.896 687.404 202.298 690.125 204.59C692.846 206.882 696.463 208.027 700.975 208.027C706.131 208.027 710.464 206.702 713.973 204.053C717.482 201.331 719.917 198.538 721.277 195.674C722.137 193.812 722.566 189.945 722.566 184.072V165.703L722.352 150.449C722.352 145.508 722.029 142.536 721.385 141.533C721.027 140.889 720.311 140.387 719.236 140.029C718.162 139.671 713.794 139.277 706.131 138.848V130.684C717.231 129.251 724.786 128.105 728.797 127.246C732.807 126.387 739.611 124.417 749.207 121.338L751.248 122.52L750.066 142.285C749.493 156.322 749.207 164.163 749.207 165.811V187.832C749.207 200.938 749.529 209.03 750.174 212.109C750.46 213.398 750.997 214.294 751.785 214.795C753.146 215.511 757.55 216.048 764.998 216.406V225L742.869 224.463L722.566 225L721.814 224.141L722.459 215.869C722.531 214.508 722.566 211.751 722.566 207.598C719.773 209.818 717.339 211.859 715.262 213.721L703.123 225.215C698.182 227.005 693.204 227.9 688.191 227.9C678.523 227.9 670.932 225.251 665.418 219.951C659.904 214.652 657.146 207.598 657.146 198.789C657.146 197.715 657.254 193.74 657.469 186.865C657.54 183.213 657.576 178.486 657.576 172.686L657.361 150.02C657.361 145.866 657.075 143.288 656.502 142.285C656.001 141.283 655.141 140.531 653.924 140.029C652.706 139.528 648.624 139.134 641.678 138.848Z" fill="white"/>
<path d="M287.808 274.5H268.656V240.228H287.808V244.02H272.976V254.724H286.944V258.468H272.976V270.708H287.808V274.5ZM361.856 274.5H356.816L338.48 246.036H338.288C338.32 246.612 338.352 247.252 338.384 247.956C338.448 248.66 338.496 249.428 338.528 250.26C338.56 251.06 338.592 251.892 338.624 252.756C338.656 253.62 338.672 254.484 338.672 255.348V274.5H334.688V240.228H339.68L357.968 268.596H358.16C358.128 268.212 358.096 267.684 358.064 267.012C358.032 266.308 358 265.54 357.968 264.708C357.936 263.844 357.904 262.964 357.872 262.068C357.84 261.172 357.824 260.34 357.824 259.572V240.228H361.856V274.5ZM433.797 274.5H428.901L419.829 259.62L410.613 274.5H406.053L417.429 256.644L406.773 240.228H411.573L419.973 253.668L428.421 240.228H432.981L422.373 256.548L433.797 274.5ZM506.968 257.316C506.968 259.972 506.632 262.388 505.96 264.564C505.288 266.708 504.28 268.564 502.936 270.132C501.624 271.7 499.976 272.9 497.992 273.732C496.04 274.564 493.768 274.98 491.176 274.98C488.488 274.98 486.152 274.564 484.168 273.732C482.184 272.868 480.536 271.668 479.224 270.132C477.912 268.564 476.936 266.692 476.296 264.516C475.656 262.34 475.336 259.924 475.336 257.268C475.336 253.748 475.912 250.676 477.064 248.052C478.216 245.428 479.96 243.38 482.296 241.908C484.664 240.436 487.64 239.7 491.224 239.7C494.648 239.7 497.528 240.436 499.864 241.908C502.2 243.348 503.96 245.396 505.144 248.052C506.36 250.676 506.968 253.764 506.968 257.316ZM479.896 257.316C479.896 260.196 480.296 262.676 481.096 264.756C481.896 266.836 483.128 268.436 484.792 269.556C486.488 270.676 488.616 271.236 491.176 271.236C493.768 271.236 495.88 270.676 497.512 269.556C499.176 268.436 500.408 266.836 501.208 264.756C502.008 262.676 502.408 260.196 502.408 257.316C502.408 252.996 501.512 249.62 499.72 247.188C497.928 244.724 495.096 243.492 491.224 243.492C488.632 243.492 486.488 244.052 484.792 245.172C483.128 246.26 481.896 247.844 481.096 249.924C480.296 251.972 479.896 254.436 479.896 257.316ZM577.599 240.228L565.359 274.5H561.039L548.799 240.228H553.311L561.039 262.212C561.391 263.14 561.695 264.036 561.951 264.9C562.207 265.764 562.431 266.596 562.623 267.396C562.847 268.164 563.039 268.932 563.199 269.7C563.359 268.932 563.535 268.148 563.727 267.348C563.951 266.548 564.191 265.716 564.447 264.852C564.735 263.988 565.039 263.076 565.359 262.116L573.039 240.228H577.599ZM641.179 274.5L637.051 263.892H623.467L619.387 274.5H615.019L628.411 240.084H632.299L645.643 274.5H641.179ZM631.915 249.684C631.819 249.428 631.659 248.964 631.435 248.292C631.211 247.62 630.987 246.932 630.763 246.228C630.571 245.492 630.411 244.932 630.283 244.548C630.123 245.188 629.947 245.844 629.755 246.516C629.595 247.156 629.419 247.748 629.227 248.292C629.067 248.836 628.923 249.3 628.795 249.684L624.907 260.052H635.755L631.915 249.684ZM699.339 274.5H686.955V272.004L690.987 271.092V243.684L686.955 242.724V240.228H699.339V242.724L695.307 243.684V271.092L699.339 272.004V274.5ZM764.757 265.332C764.757 267.38 764.261 269.124 763.269 270.564C762.277 271.972 760.853 273.06 758.997 273.828C757.173 274.596 755.013 274.98 752.517 274.98C751.237 274.98 750.005 274.916 748.821 274.788C747.669 274.66 746.613 274.484 745.653 274.26C744.693 274.004 743.845 273.7 743.109 273.348V269.22C744.261 269.732 745.685 270.196 747.381 270.612C749.109 271.028 750.885 271.236 752.709 271.236C754.405 271.236 755.829 271.012 756.981 270.564C758.133 270.116 758.997 269.476 759.573 268.644C760.149 267.812 760.437 266.836 760.437 265.716C760.437 264.596 760.197 263.652 759.717 262.884C759.237 262.116 758.405 261.412 757.221 260.772C756.069 260.1 754.453 259.396 752.373 258.66C750.901 258.116 749.605 257.54 748.485 256.932C747.397 256.292 746.485 255.572 745.749 254.772C745.013 253.972 744.453 253.06 744.069 252.036C743.717 251.012 743.541 249.828 743.541 248.484C743.541 246.66 744.005 245.108 744.933 243.828C745.861 242.516 747.141 241.508 748.773 240.804C750.437 240.1 752.341 239.748 754.485 239.748C756.373 239.748 758.101 239.924 759.669 240.276C761.237 240.628 762.661 241.092 763.941 241.668L762.597 245.364C761.413 244.852 760.117 244.42 758.709 244.068C757.333 243.716 755.893 243.54 754.389 243.54C752.949 243.54 751.749 243.748 750.789 244.164C749.829 244.58 749.109 245.172 748.629 245.94C748.149 246.676 747.909 247.54 747.909 248.532C747.909 249.684 748.149 250.644 748.629 251.412C749.109 252.18 749.893 252.868 750.981 253.476C752.069 254.084 753.541 254.74 755.397 255.444C757.413 256.18 759.109 256.98 760.485 257.844C761.893 258.676 762.949 259.684 763.653 260.868C764.389 262.052 764.757 263.54 764.757 265.332Z" fill="white"/>
</svg>
